<mxfile host="app.diagrams.net" modified="2024-05-17T08:41:43.893Z" agent="Mozilla/5.0 (Windows NT 10.0; Win64; x64) AppleWebKit/537.36 (KHTML, like Gecko) Chrome/124.0.0.0 Safari/537.36" version="21.7.5" etag="PTWFxnKj2rUl_e4QDnEs" type="github">
  <diagram name="第 1 页" id="pIHHYWvTth9QiraMg6vV">
    <mxGraphModel>
      <root>
        <mxCell id="0" />
        <mxCell id="1" parent="0" />
      </root>
    </mxGraphModel>
  </diagram>
</mxfile>
